<?xml version="1.0" encoding="utf-8"?><svg xmlns="http://www.w3.org/2000/svg" xmlns:xlink="http://www.w3.org/1999/xlink" width="1239" height="579" preserveAspectRatio="xMidYMid" viewBox="0 0 1239 579" style="z-index:1;margin-right:-1.33333px;display:block;background-repeat-y:initial;background-repeat-x:initial;background-color:rgb(247, 236, 27);animation-play-state:paused" ><g transform="translate(619.5,289.5) scale(1,1) translate(-619.5,-289.5)" style="transform:matrix(1, 0, 0, 1, 0, 0);animation-play-state:paused" ><path d="M -100 304.94 C -78.74 310.92 -78.41 295.25 -61.11 295.25 S -39.53 305.35 -22.22 305.35 S -2.75 300.91 16.68 300.91 S 38.2 303.94 55.57 303.94 S 75.5 309.05 94.46 309.05 S 114.87 303.36 133.35 303.36 S 154.13 302.1 172.24 302.1 S 193.48 312.84 211.14 312.84 S 232.46 298.41 250.03 298.41 S 270.75 291.35 288.92 291.35 S 309.33 310.74 327.81 310.74 S 349.01 301.28 366.7 301.28 S 386.68 301.66 405.59 301.66 S 427.02 306.9 444.49 306.9 S 466.07 305.36 483.38 305.36 S 503.89 313.11 522.27 313.11 S 543.04 293.66 561.16 293.66 S 581.48 312.28 600.05 312.28 S 619.6 301.14 638.95 301.14 S 659.5 312.42 677.84 312.42 S 697.49 302.84 716.73 302.84 S 737.12 294.8 755.62 294.8 S 776.77 307.91 794.51 307.91 S 815.05 310.17 833.41 310.17 S 853.98 306.65 872.3 306.65 S 892.67 305.67 911.19 305.67 S 932.74 289.6 950.08 289.6 S 969.93 298.46 988.97 298.46 S 1009.98 310.9 1027.86 310.9 S 1048.67 290.43 1066.76 290.43 S 1086.43 310.35 1105.65 310.35 S 1126.6 295.96 1144.54 295.96 S 1166.04 301.41 1183.43 301.41 S 1203.51 301.12 1222.32 301.12 S 1242.03 303.89 1261.22 303.89 S 1281.27 291.93 1300.11 291.93 S 1320.57 309.94 1339 309.94 S 1359.9 290.56 1377.89 290.56 L 1339 579 L -100 579 Z" fill="#7aece0" stroke-width="0" transform="matrix(1,0,0,1,0,0)" style="transform:matrix(1, 0, 0, 1, 0, 0);animation-play-state:paused" ></path>
<path d="M -100 325.15 C -77.71 316 -79.22 332.19 -59.97 332.19 S -37.79 326.68 -19.93 326.68 S 2.13 335.11 20.1 335.11 S 40.16 316.95 60.14 316.95 S 82.13 327.57 100.17 327.57 S 121.08 330.37 140.2 330.37 S 160.5 329.32 180.24 329.32 S 201.97 314.51 220.27 314.51 S 240.49 319.24 260.31 319.24 S 280.69 316.57 300.34 316.57 S 322.55 329.81 340.37 329.81 S 360.9 334.34 380.41 334.34 S 400.7 318.55 420.44 318.55 S 440.77 324.17 460.48 324.17 S 481.59 320.35 500.51 320.35 S 521.38 314.86 540.54 314.86 S 560.57 326.24 580.58 326.24 S 601.2 318.19 620.61 318.19 S 642.57 325.54 660.65 325.54 S 682.01 316.89 700.68 316.89 S 722.19 325.7 740.71 325.7 S 762.03 316.98 780.75 316.98 S 803.14 337.61 820.78 337.61 S 842.16 323.55 860.82 323.55 S 880.89 317.99 900.85 317.99 S 922.4 321.31 940.88 321.31 S 961.59 325.86 980.92 325.86 S 1003.27 329.34 1020.95 329.34 S 1042.23 335.56 1060.99 335.56 S 1081.52 318.48 1101.02 318.48 S 1123.35 323.94 1141.05 323.94 S 1161.64 319.7 1181.09 319.7 S 1202.55 330.52 1221.12 330.52 S 1242.01 337.31 1261.16 337.31 S 1281.57 336.59 1301.19 336.59 S 1321.71 324.81 1341.22 324.81 L 1339 579 L -100 579 Z" fill="#58d6d7" stroke-width="0" transform="matrix(1,0,0,1,1.3625612258911133,0)" style="transform:matrix(1, 0, 0, 1, 1.36256, 0);animation-play-state:paused" ></path>
<path d="M -100 346.58 C -79.14 360.46 -77.29 345.58 -58.75 345.58 S -37.42 353.46 -17.51 353.46 S 5.01 349.76 23.74 349.76 S 45.08 352.53 64.98 352.53 S 86.52 352.62 106.23 352.62 S 128.02 344.74 147.47 344.74 S 168.66 340.79 188.72 340.79 S 210.06 355.99 229.96 355.99 S 251.63 343.74 271.21 343.74 S 293.59 349.35 312.45 349.35 S 333.6 353.92 353.7 353.92 S 376.63 351 394.94 351 S 416.38 354.64 436.19 354.64 S 457.57 339.21 477.43 339.21 S 500.31 340.78 518.68 340.78 S 540.64 352.29 559.92 352.29 S 581.05 341.88 601.17 341.88 S 623.03 351.84 642.41 351.84 S 663.64 347.24 683.66 347.24 S 706.65 361.07 724.9 361.07 S 745.72 354.4 766.15 354.4 S 788.53 353.61 807.39 353.61 S 829.97 359.52 848.64 359.52 S 869.96 356.47 889.89 356.47 S 912.88 352.14 931.13 352.14 S 953.17 361.01 972.38 361.01 S 994.5 341 1013.62 341 S 1034.36 348.72 1054.87 348.72 S 1075.97 348.83 1096.11 348.83 S 1117.39 343.69 1137.36 343.69 S 1159.31 342.69 1178.6 342.69 S 1200.89 348.68 1219.85 348.68 S 1242.25 357.17 1261.09 357.17 S 1282.85 361.28 1302.34 361.28 S 1324.87 344.14 1343.58 344.14 L 1339 579 L -100 579 Z" fill="#34bfcf" stroke-width="0" transform="matrix(1,0,0,1,4.208890914916992,0)" style="transform:matrix(1, 0, 0, 1, 4.20889, 0);animation-play-state:paused" ></path>
<path d="M -100 365.98 C -77.96 372.59 -77.94 372.55 -57.47 372.55 S -36.03 380.18 -14.94 380.18 S 7.97 380.93 27.6 380.93 S 50.33 377.54 70.13 377.54 S 92.81 371.39 112.66 371.39 S 134.87 365.39 155.19 365.39 S 177.53 364.35 197.72 364.35 S 221.08 366.78 240.26 366.78 S 263.66 368.74 282.79 368.74 S 306.37 370.74 325.32 370.74 S 346.99 369.62 367.85 369.62 S 391.32 367.29 410.38 367.29 S 433.8 377 452.92 377 S 474.19 370.02 495.45 370.02 S 518.42 379.59 537.98 379.59 S 559.57 382.47 580.51 382.47 S 602.82 374.53 623.04 374.53 S 646.49 366.44 665.58 366.44 S 687.88 385.46 708.11 385.46 S 730.86 370.22 750.64 370.22 S 772.9 380.96 793.17 380.96 S 816.44 373.12 835.7 373.12 S 858.67 385.91 878.24 385.91 S 901.08 367.25 920.77 367.25 S 942.47 378.78 963.3 378.78 S 986.43 381.06 1005.83 381.06 S 1027.77 367.51 1048.36 367.51 S 1071.69 378.66 1090.9 378.66 S 1112.63 366.19 1133.43 366.19 S 1155.35 366.63 1175.96 366.63 S 1198.7 375.7 1218.49 375.7 S 1241.18 375.22 1261.02 375.22 S 1283.34 367.6 1303.56 367.6 S 1327.03 378.89 1346.09 378.89 L 1339 579 L -100 579 Z" fill="#00a8c5" stroke-width="0" transform="matrix(1,0,0,1,7.311387538909912,0)" style="transform:matrix(1, 0, 0, 1, 7.31139, 0);animation-play-state:paused" ></path>
<path d="M -100 406.17 C -77.64 398.75 -75.98 400.55 -56.1 400.55 S -33.73 409.51 -12.2 409.51 S 11.39 389.75 31.71 389.75 S 53.92 390.81 75.61 390.81 S 98.79 397.91 119.51 397.91 S 142.48 388.3 163.41 388.3 S 186.79 394.64 207.31 394.64 S 229.74 391.42 251.21 391.42 S 275.19 391.48 295.12 391.48 S 318.99 410.62 339.02 410.62 S 362.31 389.09 382.92 389.09 S 405.21 407.47 426.82 407.47 S 450.93 409.49 470.72 409.49 S 494.4 402.44 514.62 402.44 S 537.84 405.65 558.53 405.65 S 581.11 408.5 602.43 408.5 S 626.56 401.73 646.33 401.73 S 670.39 398.82 690.23 398.82 S 712.36 407.92 734.13 407.92 S 757.3 388.79 778.03 388.79 S 801.73 389.84 821.94 389.84 S 845.75 394.71 865.84 394.71 S 889.46 408.76 909.74 408.76 S 933.61 397.65 953.64 397.65 S 975.96 394.86 997.54 394.86 S 1019.96 394.91 1041.44 394.91 S 1064.87 410.08 1085.35 410.08 S 1108.63 389.72 1129.25 389.72 S 1151.29 410.67 1173.15 410.67 S 1195.14 407.14 1217.05 407.14 S 1241.02 394.73 1260.95 394.73 S 1284.47 410.2 1304.85 410.2 S 1327.69 406.92 1348.76 406.92 L 1339 579 L -100 579 Z" fill="#0091ba" stroke-width="0" transform="matrix(1,0,0,1,9.608220100402832,0)" style="transform:matrix(1, 0, 0, 1, 9.60822, 0);animation-play-state:paused" ></path>
<path d="M -100 413.44 C -76.8 434.51 -75.05 426.94 -54.64 426.94 S -30.81 426.45 -9.27 426.45 S 15.5 433.84 36.09 433.84 S 61.09 434.49 81.45 434.49 S 104.35 427.81 126.81 427.81 S 150.79 422.55 172.18 422.55 S 196.95 415.53 217.54 415.53 S 242.11 430.52 262.9 430.52 S 287.74 433.36 308.26 433.36 S 332.07 415.63 353.63 415.63 S 376.67 428.03 398.99 428.03 S 422.17 422.83 444.35 422.83 S 467.22 416.4 489.71 416.4 S 512.95 424.76 535.08 424.76 S 558.29 415.41 580.44 415.41 S 604.94 414.82 625.8 414.82 S 649.34 420.55 671.16 420.55 S 696.2 412.25 716.53 412.25 S 739.25 431.73 761.89 431.73 S 786.38 421.63 807.25 421.63 S 830.82 423.65 852.61 423.65 S 875.54 413.2 897.98 413.2 S 921.18 412.87 943.34 412.87 S 967.73 428.19 988.7 428.19 S 1012.6 413.99 1034.06 413.99 S 1058.36 421.11 1079.43 421.11 S 1102.3 416.8 1124.79 416.8 S 1149.62 427.83 1170.15 427.83 S 1193.86 430.52 1215.51 430.52 S 1238.28 434.13 1260.88 434.13 S 1283.65 433.2 1306.24 433.2 S 1329.85 414.04 1351.6 414.04 L 1339 579 L -100 579 Z" fill="#007bae" stroke-width="0" transform="matrix(1,0,0,1,9.608221054077148,0)" style="transform:matrix(1, 0, 0, 1, 9.60822, 0);animation-play-state:paused" ></path>
<path d="M -100 454.63 C -74.58 445.43 -75.96 446.81 -53.08 446.81 S -27.52 459.84 -6.15 459.84 S 19.02 436.81 40.77 436.81 S 64.57 454.25 87.7 454.25 S 113.3 456.17 134.62 456.17 S 159.35 456.78 181.54 456.78 S 205.2 449.27 228.47 449.27 S 252.78 454.41 275.39 454.41 S 299.39 446.45 322.32 446.45 S 346.99 436.45 369.24 436.45 S 393.62 442.54 416.16 442.54 S 441.08 438.53 463.09 438.53 S 486.68 444 510.01 444 S 533.51 444.8 556.93 444.8 S 582.58 451.52 603.86 451.52 S 628.89 441.2 650.78 441.2 S 675.69 450.92 697.71 450.92 S 721.67 457.41 744.63 457.41 S 768.69 448.43 791.55 448.43 S 816.57 438.23 838.48 438.23 S 863.43 454.95 885.4 454.95 S 908.99 440.57 932.33 440.57 S 956.62 455 979.25 455 S 1003.52 451.86 1026.17 451.86 S 1049.8 444.66 1073.1 444.66 S 1097.41 440.49 1120.02 440.49 S 1144.6 458.51 1166.95 458.51 S 1190.76 438.1 1213.87 438.1 S 1238.82 449.34 1260.79 449.34 S 1286.1 448.3 1307.72 448.3 S 1331.27 441.4 1354.64 441.4 L 1339 579 L -100 579 Z" fill="#0064a0" stroke-width="0" transform="matrix(1,0,0,1,7.311387062072754,0)" style="transform:matrix(1, 0, 0, 1, 7.31139, 0);animation-play-state:paused" ></path>
<path d="M -100 461.68 C -74.68 466.37 -74.26 470.77 -51.4 470.77 S -25.82 470.52 -2.81 470.52 S 22.79 470.84 45.79 470.84 S 70.39 462.72 94.39 462.72 S 118.82 480.51 142.98 480.51 S 167.34 473.54 191.58 473.54 S 217.33 462.08 240.18 462.08 S 264.49 482.31 288.77 482.31 S 313.34 484 337.37 484 S 362.2 467.92 385.97 467.92 S 411.49 480.31 434.56 480.31 S 459.25 478.82 483.16 478.82 S 508.57 480.51 531.76 480.51 S 557.16 479.21 580.35 479.21 S 606.69 462.79 628.95 462.79 S 654.36 482.92 677.55 482.92 S 702.26 471.7 726.14 471.7 S 752.07 464.05 774.74 464.05 S 800.9 463.45 823.34 463.45 S 848.54 476.17 871.93 476.17 S 898.35 479.78 920.53 479.78 S 945.7 461.22 969.13 461.22 S 994.62 482.18 1017.72 482.18 S 1044.19 468.78 1066.32 468.78 S 1092.36 461.26 1114.92 461.26 S 1141.57 467.75 1163.51 467.75 S 1188.92 477.33 1212.11 477.33 S 1238.65 465.09 1260.71 465.09 S 1286.19 482.22 1309.3 482.22 S 1334.96 478.76 1357.9 478.76 L 1339 579 L -100 579 Z" fill="#004e8f" stroke-width="0" transform="matrix(1,0,0,1,4.208897590637207,0)" style="transform:matrix(1, 0, 0, 1, 4.2089, 0);animation-play-state:paused" ></path>
<path d="M -100 495.98 C -74.03 503.37 -73.34 500.49 -49.61 500.49 S -22.92 495.51 0.79 495.51 S 28.03 506.38 51.18 506.38 S 77.41 495.97 101.57 495.97 S 128.3 502.38 151.96 502.38 S 178.73 502.21 202.36 502.21 S 227.81 494.85 252.75 494.85 S 278.85 486.44 303.14 486.44 S 330.22 497.32 353.54 497.32 S 379.29 498.82 403.93 498.82 S 429.28 489.79 454.32 489.79 S 481.33 504 504.72 504 S 530.82 495.18 555.11 495.18 S 581.8 493.96 605.5 493.96 S 631.78 498.8 655.89 498.8 S 683.46 504.64 706.29 504.64 S 732.79 491.55 756.68 491.55 S 782.9 486.56 807.07 486.56 S 832.4 491 857.47 491 S 884.33 503.24 907.86 503.24 S 933.75 494.2 958.25 494.2 S 984.13 502.91 1008.65 502.91 S 1034.55 498.07 1059.04 498.07 S 1086.61 487.67 1109.43 487.67 S 1135.88 498.8 1159.82 498.8 S 1186.25 501.8 1210.22 501.8 S 1235.94 501.76 1260.61 501.76 S 1287.45 494.98 1311 494.98 S 1337.13 507.47 1361.4 507.47 L 1339 579 L -100 579 Z" fill="#00397c" stroke-width="0" transform="matrix(1,0,0,1,1.3625640869140625,0)" style="transform:matrix(1, 0, 0, 1, 1.36256, 0);animation-play-state:paused" ></path></g></svg>